# xmcd
#
# Track frame offsets:
#	317
#	27162
#	44470
#	57408
#	79491
#	98740
#	124490
#	142605
#	156787
#	167890
#	196315
#	218924
#	241870
#
# Disc length: 3528 seconds
#
# Revision: 0
# Processed by: cddbd v1.5.1PL2 Copyright (c) Steve Scherf et al.
# Submitted via: dBpowerAMP V4.0
#
DISCID=b40dc40d
DTITLE=The Steve Strongman Band - Tuesday Night Live
DYEAR=2002
DGENRE=Blues
TTITLE0=She Loves My Automobile
TTITLE1=Liza Jane
TTITLE2=Hug You Squeeze You
TTITLE3=Get Up I Feel Like Being a Sex Machine
TTITLE4=Let's Get It On
TTITLE5=I'll See It Through
TTITLE6=Got My Mojo Working
TTITLE7=Jumpin' From Six to Six
TTITLE8=Just Because
TTITLE9=Somethin's Wrong
TTITLE10=Thunderbird
TTITLE11=Them Changes
TTITLE12=Highway to Hell
EXTD=Steve Strongman is a Canadian independent blues rock musician
EXTT0=
EXTT1=
EXTT2=
EXTT3=
EXTT4=
EXTT5=
EXTT6=
EXTT7=
EXTT8=
EXTT9=
EXTT10=
EXTT11=
EXTT12=
PLAYORDER=
